<mxfile host="app.diagrams.net" modified="2021-08-17T18:59:45.629Z" agent="5.0 (Windows)" etag="4P1QsRs_xckdCyj8m8uG" version="14.9.7" type="github">
  <diagram id="ID-wULCA2gCPhYYiEIVL" name="Page-1">
    <mxGraphModel dx="1809" dy="1116" grid="0" gridSize="10" guides="1" tooltips="1" connect="1" arrows="1" fold="1" page="1" pageScale="1" pageWidth="827" pageHeight="1169" math="0" shadow="0">
      <root>
        <mxCell id="0" />
        <mxCell id="1" parent="0" />
        <mxCell id="7tfHxKUZsFOZbJolinMj-1" value="Экспортёры" style="ellipse;shape=cloud;whiteSpace=wrap;html=1;" parent="1" vertex="1">
          <mxGeometry x="132" y="38" width="130" height="70" as="geometry" />
        </mxCell>
        <mxCell id="7tfHxKUZsFOZbJolinMj-2" value="NodeExporter" style="ellipse;shape=cloud;whiteSpace=wrap;html=1;" parent="1" vertex="1">
          <mxGeometry x="262" y="38" width="130" height="70" as="geometry" />
        </mxCell>
        <mxCell id="7tfHxKUZsFOZbJolinMj-3" value="" style="endArrow=classic;html=1;exitX=0.55;exitY=0.95;exitDx=0;exitDy=0;exitPerimeter=0;entryX=0.133;entryY=0.052;entryDx=0;entryDy=0;entryPerimeter=0;" parent="1" source="7tfHxKUZsFOZbJolinMj-1" target="7tfHxKUZsFOZbJolinMj-4" edge="1">
          <mxGeometry width="50" height="50" relative="1" as="geometry">
            <mxPoint x="392" y="618" as="sourcePoint" />
            <mxPoint x="204" y="168" as="targetPoint" />
          </mxGeometry>
        </mxCell>
        <mxCell id="7tfHxKUZsFOZbJolinMj-4" value="Prometheus" style="rounded=1;whiteSpace=wrap;html=1;" parent="1" vertex="1">
          <mxGeometry x="182" y="138" width="170" height="30" as="geometry" />
        </mxCell>
        <mxCell id="7tfHxKUZsFOZbJolinMj-5" value="" style="endArrow=classic;html=1;exitX=0.55;exitY=0.95;exitDx=0;exitDy=0;exitPerimeter=0;" parent="1" edge="1">
          <mxGeometry width="50" height="50" relative="1" as="geometry">
            <mxPoint x="332" y="104.5" as="sourcePoint" />
            <mxPoint x="333" y="138" as="targetPoint" />
          </mxGeometry>
        </mxCell>
        <mxCell id="7tfHxKUZsFOZbJolinMj-6" value="&lt;div&gt;TSDB&lt;/div&gt;" style="ellipse;whiteSpace=wrap;html=1;" parent="1" vertex="1">
          <mxGeometry x="205" y="198" width="120" height="42" as="geometry" />
        </mxCell>
        <mxCell id="7tfHxKUZsFOZbJolinMj-8" value="Thanos Sidecar" style="rounded=1;whiteSpace=wrap;html=1;" parent="1" vertex="1">
          <mxGeometry x="205" y="270" width="120" height="30" as="geometry" />
        </mxCell>
        <mxCell id="7tfHxKUZsFOZbJolinMj-11" value="Thanos Store" style="rounded=1;whiteSpace=wrap;html=1;" parent="1" vertex="1">
          <mxGeometry x="362" y="330" width="120" height="30" as="geometry" />
        </mxCell>
        <mxCell id="7tfHxKUZsFOZbJolinMj-13" value="S3 storage" style="rounded=1;whiteSpace=wrap;html=1;" parent="1" vertex="1">
          <mxGeometry x="360" y="270" width="120" height="30" as="geometry" />
        </mxCell>
        <mxCell id="7tfHxKUZsFOZbJolinMj-15" value="Thanos Compactor" style="rounded=1;whiteSpace=wrap;html=1;" parent="1" vertex="1">
          <mxGeometry x="360" y="213" width="120" height="30" as="geometry" />
        </mxCell>
        <mxCell id="7tfHxKUZsFOZbJolinMj-19" value="Thanos Query" style="rounded=1;whiteSpace=wrap;html=1;" parent="1" vertex="1">
          <mxGeometry x="205" y="330" width="120" height="30" as="geometry" />
        </mxCell>
        <mxCell id="7tfHxKUZsFOZbJolinMj-21" value="Thanos Ruler" style="rounded=1;whiteSpace=wrap;html=1;" parent="1" vertex="1">
          <mxGeometry x="205" y="390" width="120" height="30" as="geometry" />
        </mxCell>
        <mxCell id="7tfHxKUZsFOZbJolinMj-23" value="AlertManager" style="rounded=1;whiteSpace=wrap;html=1;" parent="1" vertex="1">
          <mxGeometry x="205" y="450" width="120" height="30" as="geometry" />
        </mxCell>
        <mxCell id="7tfHxKUZsFOZbJolinMj-25" value="Grafana" style="rounded=1;whiteSpace=wrap;html=1;" parent="1" vertex="1">
          <mxGeometry x="360" y="450" width="120" height="30" as="geometry" />
        </mxCell>
        <mxCell id="7tfHxKUZsFOZbJolinMj-30" value="" style="endArrow=classic;startArrow=classic;html=1;exitX=1;exitY=0.5;exitDx=0;exitDy=0;entryX=0;entryY=0.5;entryDx=0;entryDy=0;" parent="1" source="7tfHxKUZsFOZbJolinMj-8" target="7tfHxKUZsFOZbJolinMj-13" edge="1">
          <mxGeometry width="50" height="50" relative="1" as="geometry">
            <mxPoint x="320" y="300" as="sourcePoint" />
            <mxPoint x="370" y="250" as="targetPoint" />
          </mxGeometry>
        </mxCell>
        <mxCell id="7tfHxKUZsFOZbJolinMj-32" value="" style="endArrow=classic;startArrow=classic;html=1;entryX=0.5;entryY=1;entryDx=0;entryDy=0;" parent="1" edge="1">
          <mxGeometry width="50" height="50" relative="1" as="geometry">
            <mxPoint x="264.71" y="270" as="sourcePoint" />
            <mxPoint x="264.71" y="240" as="targetPoint" />
          </mxGeometry>
        </mxCell>
        <mxCell id="7tfHxKUZsFOZbJolinMj-33" value="" style="endArrow=classic;startArrow=classic;html=1;entryX=0.5;entryY=1;entryDx=0;entryDy=0;" parent="1" edge="1">
          <mxGeometry width="50" height="50" relative="1" as="geometry">
            <mxPoint x="264.71" y="330" as="sourcePoint" />
            <mxPoint x="264.71" y="300" as="targetPoint" />
          </mxGeometry>
        </mxCell>
        <mxCell id="7tfHxKUZsFOZbJolinMj-34" value="" style="endArrow=classic;startArrow=classic;html=1;entryX=0.5;entryY=1;entryDx=0;entryDy=0;" parent="1" edge="1">
          <mxGeometry width="50" height="50" relative="1" as="geometry">
            <mxPoint x="264.71" y="390" as="sourcePoint" />
            <mxPoint x="264.71" y="360" as="targetPoint" />
          </mxGeometry>
        </mxCell>
        <mxCell id="7tfHxKUZsFOZbJolinMj-35" value="" style="endArrow=classic;startArrow=classic;html=1;entryX=0.5;entryY=1;entryDx=0;entryDy=0;" parent="1" edge="1">
          <mxGeometry width="50" height="50" relative="1" as="geometry">
            <mxPoint x="264.71" y="450" as="sourcePoint" />
            <mxPoint x="264.71" y="420" as="targetPoint" />
          </mxGeometry>
        </mxCell>
        <mxCell id="7tfHxKUZsFOZbJolinMj-38" value="" style="endArrow=classic;startArrow=classic;html=1;exitX=1;exitY=0.5;exitDx=0;exitDy=0;entryX=0;entryY=0.5;entryDx=0;entryDy=0;" parent="1" edge="1">
          <mxGeometry width="50" height="50" relative="1" as="geometry">
            <mxPoint x="325" y="464.71000000000004" as="sourcePoint" />
            <mxPoint x="360" y="464.71000000000004" as="targetPoint" />
          </mxGeometry>
        </mxCell>
        <mxCell id="7tfHxKUZsFOZbJolinMj-39" value="" style="endArrow=classic;startArrow=classic;html=1;exitX=0.75;exitY=1;exitDx=0;exitDy=0;entryX=0.5;entryY=0;entryDx=0;entryDy=0;" parent="1" source="7tfHxKUZsFOZbJolinMj-19" target="7tfHxKUZsFOZbJolinMj-25" edge="1">
          <mxGeometry width="50" height="50" relative="1" as="geometry">
            <mxPoint x="320" y="300" as="sourcePoint" />
            <mxPoint x="370" y="250" as="targetPoint" />
            <Array as="points">
              <mxPoint x="295" y="379" />
              <mxPoint x="420" y="379" />
            </Array>
          </mxGeometry>
        </mxCell>
        <mxCell id="7tfHxKUZsFOZbJolinMj-40" value="&lt;div style=&quot;font-size: 11px&quot; align=&quot;center&quot;&gt;&lt;i&gt;&lt;font style=&quot;font-size: 11px&quot;&gt;Временная база данных&lt;/font&gt;&lt;/i&gt;&lt;/div&gt;" style="text;whiteSpace=wrap;html=1;align=center;" parent="1" vertex="1">
          <mxGeometry x="125" y="198" width="80" height="30" as="geometry" />
        </mxCell>
        <mxCell id="7tfHxKUZsFOZbJolinMj-41" value="&lt;div style=&quot;font-size: 11px&quot; align=&quot;left&quot;&gt;&lt;font style=&quot;font-size: 11px&quot;&gt;&lt;i&gt;Проверяет наличие метрик.&lt;/i&gt;&lt;/font&gt;&lt;/div&gt;&lt;div style=&quot;font-size: 11px&quot; align=&quot;left&quot;&gt;&lt;font style=&quot;font-size: 11px&quot;&gt;&lt;i&gt;Старые метрики отправляет в storage&lt;br&gt;&lt;/i&gt;&lt;/font&gt;&lt;/div&gt;" style="text;whiteSpace=wrap;html=1;align=left;" parent="1" vertex="1">
          <mxGeometry x="83" y="250" width="130" height="30" as="geometry" />
        </mxCell>
        <mxCell id="7tfHxKUZsFOZbJolinMj-42" value="&lt;font style=&quot;font-size: 11px&quot;&gt;&lt;i&gt;Сжимает данные&lt;/i&gt;&lt;/font&gt;" style="text;whiteSpace=wrap;html=1;align=center;" parent="1" vertex="1">
          <mxGeometry x="364" y="188" width="120" height="30" as="geometry" />
        </mxCell>
        <mxCell id="7tfHxKUZsFOZbJolinMj-43" value="&lt;font style=&quot;font-size: 11px&quot;&gt;&lt;i&gt;Агрегирует данные из Sidecar и Store&lt;/i&gt;&lt;/font&gt;" style="text;whiteSpace=wrap;html=1;align=center;" parent="1" vertex="1">
          <mxGeometry x="90" y="330" width="105" height="30" as="geometry" />
        </mxCell>
        <mxCell id="7tfHxKUZsFOZbJolinMj-44" value="&lt;font style=&quot;font-size: 11px&quot;&gt;&lt;i&gt;Сбор метрик&lt;/i&gt;&lt;/font&gt;" style="text;whiteSpace=wrap;html=1;align=center;" parent="1" vertex="1">
          <mxGeometry x="102" y="138" width="80" height="30" as="geometry" />
        </mxCell>
        <mxCell id="7tfHxKUZsFOZbJolinMj-45" value="" style="endArrow=classic;startArrow=classic;html=1;entryX=0.5;entryY=1;entryDx=0;entryDy=0;" parent="1" edge="1">
          <mxGeometry width="50" height="50" relative="1" as="geometry">
            <mxPoint x="421.76000000000005" y="330" as="sourcePoint" />
            <mxPoint x="421.76000000000005" y="300" as="targetPoint" />
          </mxGeometry>
        </mxCell>
        <mxCell id="7tfHxKUZsFOZbJolinMj-48" value="" style="endArrow=classic;startArrow=classic;html=1;exitX=1;exitY=0.5;exitDx=0;exitDy=0;entryX=0;entryY=0.5;entryDx=0;entryDy=0;" parent="1" source="7tfHxKUZsFOZbJolinMj-19" target="7tfHxKUZsFOZbJolinMj-11" edge="1">
          <mxGeometry width="50" height="50" relative="1" as="geometry">
            <mxPoint x="318" y="278" as="sourcePoint" />
            <mxPoint x="368" y="228" as="targetPoint" />
          </mxGeometry>
        </mxCell>
        <mxCell id="7tfHxKUZsFOZbJolinMj-49" value="" style="endArrow=classic;startArrow=classic;html=1;entryX=0.5;entryY=1;entryDx=0;entryDy=0;" parent="1" edge="1">
          <mxGeometry width="50" height="50" relative="1" as="geometry">
            <mxPoint x="264.76000000000005" y="198" as="sourcePoint" />
            <mxPoint x="264.76000000000005" y="168" as="targetPoint" />
          </mxGeometry>
        </mxCell>
        <mxCell id="7tfHxKUZsFOZbJolinMj-50" value="" style="endArrow=classic;html=1;exitX=0.5;exitY=1;exitDx=0;exitDy=0;entryX=0.5;entryY=0;entryDx=0;entryDy=0;" parent="1" source="7tfHxKUZsFOZbJolinMj-15" target="7tfHxKUZsFOZbJolinMj-13" edge="1">
          <mxGeometry width="50" height="50" relative="1" as="geometry">
            <mxPoint x="318" y="278" as="sourcePoint" />
            <mxPoint x="368" y="228" as="targetPoint" />
          </mxGeometry>
        </mxCell>
        <mxCell id="7tfHxKUZsFOZbJolinMj-52" value=":9090" style="text;strokeColor=none;fillColor=none;html=1;fontSize=10;fontStyle=1;verticalAlign=middle;align=center;fontColor=#FF0F0F;" parent="1" vertex="1">
          <mxGeometry x="311" y="138" width="44" height="17" as="geometry" />
        </mxCell>
        <mxCell id="7tfHxKUZsFOZbJolinMj-53" value=":10091, 10902" style="text;strokeColor=none;fillColor=none;html=1;fontSize=10;fontStyle=1;verticalAlign=middle;align=center;fontColor=#FF0F0F;" parent="1" vertex="1">
          <mxGeometry x="267" y="268" width="44" height="17" as="geometry" />
        </mxCell>
        <mxCell id="7tfHxKUZsFOZbJolinMj-54" value=":9098, 10901" style="text;strokeColor=none;fillColor=none;html=1;fontSize=10;fontStyle=1;verticalAlign=middle;align=center;fontColor=#FF0F0F;" parent="1" vertex="1">
          <mxGeometry x="270" y="326" width="44" height="17" as="geometry" />
        </mxCell>
        <mxCell id="7tfHxKUZsFOZbJolinMj-55" value=":19090, 19191" style="text;strokeColor=none;fillColor=none;html=1;fontSize=10;fontStyle=1;verticalAlign=middle;align=center;fontColor=#FF0F0F;" parent="1" vertex="1">
          <mxGeometry x="423" y="326" width="44" height="17" as="geometry" />
        </mxCell>
        <mxCell id="7tfHxKUZsFOZbJolinMj-56" value=":9000" style="text;strokeColor=none;fillColor=none;html=1;fontSize=10;fontStyle=1;verticalAlign=middle;align=center;fontColor=#FF0F0F;" parent="1" vertex="1">
          <mxGeometry x="440" y="268" width="44" height="17" as="geometry" />
        </mxCell>
        <mxCell id="7tfHxKUZsFOZbJolinMj-57" value=":3000" style="text;strokeColor=none;fillColor=none;html=1;fontSize=10;fontStyle=1;verticalAlign=middle;align=center;fontColor=#FF0F0F;" parent="1" vertex="1">
          <mxGeometry x="436" y="450" width="44" height="17" as="geometry" />
        </mxCell>
        <mxCell id="7tfHxKUZsFOZbJolinMj-58" value=":9093" style="text;strokeColor=none;fillColor=none;html=1;fontSize=10;fontStyle=1;verticalAlign=middle;align=center;fontColor=#FF0F0F;" parent="1" vertex="1">
          <mxGeometry x="287" y="447" width="44" height="17" as="geometry" />
        </mxCell>
        <mxCell id="7tfHxKUZsFOZbJolinMj-59" value=":9100" style="text;strokeColor=none;fillColor=none;html=1;fontSize=10;fontStyle=1;verticalAlign=middle;align=center;fontColor=#FF0F0F;" parent="1" vertex="1">
          <mxGeometry x="335" y="52" width="44" height="17" as="geometry" />
        </mxCell>
      </root>
    </mxGraphModel>
  </diagram>
</mxfile>
